# xmcd CD database file
#
# Track frame offsets:
#	150
#	29817
#	57380
#	88632
#	119487
#	148422
#
# Disc length: 2237 seconds
#
# Revision: 0
# Processed by: cddbd v1.5.1PL0 Copyright (c) Steve Scherf et al.
# Submitted via: CDex 1.50
#
DISCID=5d08bb06
DTITLE=Bobby Timmons - Chun-King
DYEAR=1964
DGENRE=Jazz
TTITLE0=Chun-King
TTITLE1=Walking Death
TTITLE2=O Ground Amour
TTITLE3=Gettin' it togetha'
TTITLE4=I could have danced all night
TTITLE5=Someone to watch over me
EXTD=YEAR: 1964
EXTT0=
EXTT1=
EXTT2=
EXTT3=
EXTT4=
EXTT5=
PLAYORDER=
